<svg xmlns="http://www.w3.org/2000/svg" xmlns:xlink="http://www.w3.org/1999/xlink" viewBox="0 0 481.71 70.65"><defs><style>.cls-1{fill:url(#Sfumatura_senza_nome_64);}.cls-2{fill:url(#linear-gradient);}</style><linearGradient id="Sfumatura_senza_nome_64" x1="240.86" y1="20.48" x2="240.86" y2="70.65" gradientUnits="userSpaceOnUse"><stop offset="0" stop-color="#14191e"/><stop offset="0.19" stop-color="#1b2025"/><stop offset="0.46" stop-color="#2e3338"/><stop offset="0.5" stop-color="#32373c"/><stop offset="0.5" stop-color="#2b3035"/><stop offset="0.51" stop-color="#181d22"/><stop offset="0.51" stop-color="#14191e"/><stop offset="0.8" stop-color="#1b2025"/><stop offset="1" stop-color="#23282d"/></linearGradient><linearGradient id="linear-gradient" x1="361.32" x2="361.32" y2="41.78" gradientUnits="userSpaceOnUse"><stop offset="0" stop-color="#ff5f00"/><stop offset="0.27" stop-color="#ff6506"/><stop offset="0.48" stop-color="#ff6e0f"/><stop offset="0.48" stop-color="#fe690c"/><stop offset="0.49" stop-color="#fd5e05"/><stop offset="0.49" stop-color="#fc5701"/><stop offset="0.51" stop-color="#fc5500"/><stop offset="0.78" stop-color="#fe6300"/><stop offset="1" stop-color="#ff6900"/></linearGradient></defs><g id="Layer_2" data-name="Layer 2"><g id="Livello_1" data-name="Livello 1"><path class="cls-1" d="M5,21.92q-5,1.81-5,4.82V70.6H23.49V49.92H56.38V41.15H23.49v-10c0-1.25,1.25-1.88,3.76-1.88H56.38V20.48H14.09A27.41,27.41,0,0,0,5,21.92Zm118.17.44A22.73,22.73,0,0,0,114,20.48,20.86,20.86,0,0,0,105,22.42a12,12,0,0,0-5.73,5L76.64,70.6H89.79l3.28-6.27h30.12l3.26,6.27h25.37L129.07,27.18C128,25.22,126.06,23.61,123.18,22.36ZM97.74,55.56,108.15,35.7l10.4,19.86Zm83.34-27.72q-11,7.36-11,17.69t11,17.7q11,7.38,26.5,7.37h28.19V61.83H207.58c-4.89,0-8.18-2.07-9.9-6.2-.92-2.26-1.37-5.62-1.37-10.1s.45-7.82,1.37-10.08c1.72-4.13,5-6.2,9.9-6.2h28.19V20.48H207.58Q192.1,20.48,181.08,27.84Zm89.55-5.92q-5,1.81-5,4.82V64.33q0,3,5,4.83a27.45,27.45,0,0,0,9.08,1.44H322V61.83H292.87c-2.52,0-3.77-.63-3.77-1.89v-10H322V41.15H289.1v-10c0-1.25,1.25-1.88,3.77-1.88H322V20.48H279.71A27.45,27.45,0,0,0,270.63,21.92ZM362,70.31l0-.1h25.27V53.08L362,42.87Zm47.06-49.78V29.3h20.76c2.46,0,3.7.62,3.7,1.88V70.65h23.71V31.18c0-1.26,1.23-1.88,3.69-1.88h20.76V20.53Z"/><path class="cls-2" d="M387.76.41a.36.36,0,0,0-.67-.23c-6.44,9.89-10.06,15.54-13.33,20.66-12.17,0-29.68,0-38.4,0-.47,0-.67.62-.25.78,15.93,6,38.95,15.06,51.79,20.14.33.13.86-.18.86-.41Z"/></g></g></svg>