<?xml version="1.0" encoding="utf-8"?>
<!-- Generator: Adobe Illustrator 19.0.0, SVG Export Plug-In . SVG Version: 6.00 Build 0)  -->
<svg version="1.1" id="Layer_1" xmlns="http://www.w3.org/2000/svg" xmlns:xlink="http://www.w3.org/1999/xlink" x="0px" y="0px"
	 viewBox="0 0 1449 245.3" style="enable-background:new 0 0 1449 245.3;" xml:space="preserve">
<style type="text/css">
	.st0{fill:#5B6565;}
	.st1{fill:#BAADAD;}
	.st2{fill:#7B7474;}
	.st3{fill:#141414;}
	.st4{fill:#2A2929;}
</style>
<g>
	<path d="M560.7,169.1c3.2-18.3,6.5-36.7,9.7-55c0.6-3.3,1.3-6.6,1.8-9.9c0.2-1.2,0.7-1.5,1.7-1.4c0.5,0,1,0,1.4,0
		c61.5,0,123,0,184.5,0c0.9,0,1.7,0,2.9,0c-0.5,3.1-1,6.1-1.5,9c-2.3,13.4-4.7,26.8-7,40.1c-2.5,14.2-5,28.3-7.5,42.5
		c-2.3,13.1-4.6,26.3-6.9,39.4c-0.2,1.2-0.5,1.8-1.9,1.8c-10.2-0.1-20.5,0-30.7,0c-0.3,0-0.6-0.1-1.1-0.2
		c6.1-34.6,12.2-69.1,18.3-103.6c-0.9-0.4-1.7-0.2-2.5-0.2c-13.4,0-26.9,0-40.3,0c-0.3,0-0.6,0-1,0c-1.2-0.2-1.5,0.5-1.7,1.5
		c-0.5,3-1,6-1.5,9c-2.7,15.1-5.3,30.2-8,45.3c-2.3,13.2-4.6,26.4-6.9,39.7c-0.4,2.3-0.8,4.6-1.2,6.8c-0.3,1.7-0.4,1.8-2.1,1.8
		c-7.1,0-14.2,0-21.4,0c-3,0-5.9,0-8.9,0c-0.4,0-0.8,0-1.3-0.4c6-34.4,12.1-68.9,18.1-103.4c-0.8-0.4-1.5-0.3-2.3-0.3
		c-13.5,0-27,0-40.6,0c-0.1,0-0.2,0-0.2,0c-2.5,0-2-0.2-2.4,2c-0.8,3.9-1.4,7.9-2.1,11.8c-2.3,13.4-4.7,26.8-7,40.1
		c-2.3,13.2-4.6,26.4-6.9,39.7c-0.5,2.9-1,5.8-1.5,8.7c-0.3,1.7-0.3,1.7-2.2,1.7c-9.8,0-19.7,0-29.5,0c-2,0-2.1,0-2.7-1.9
		c-6.4-20.1-12.9-40.3-19.3-60.4c-1-3.1-2-6.2-3.1-9.5c-0.6,0.9-0.6,1.8-0.8,2.6c-2.3,13.4-4.6,26.8-6.9,40.2
		c-1.5,8.9-3.1,17.8-4.6,26.7c-0.1,0.5-0.2,0.9-0.3,1.4c-0.1,0.8-0.6,1-1.3,1c-1.7,0-3.4,0-5,0c-8.4,0-16.8,0-25.2,0c-2,0-2,0-1.7-2
		c2-11.2,3.9-22.3,5.9-33.5c2.3-13.1,4.6-26.3,7-39.4c2.5-14.2,5-28.3,7.5-42.5c0.8-4.6,1.6-9.1,2.4-13.7c0.3-1.7,0.4-1.7,2.1-1.7
		c9.4,0,18.7,0,28.1,0c1.5,0,3.3-0.6,4.4,0.3c0.9,0.9,1.1,2.6,1.6,4c6.8,20.1,13.5,40.2,20.3,60.4c0.1,0.4,0.3,0.7,0.4,1.1
		C560.1,168.9,560.1,169.5,560.7,169.1z"/>
	<path d="M1442,4.7c-2,11.2-4,22.2-6,33.2c-0.9,4.8-1.7,9.6-2.6,14.4c-0.4,2.4-0.4,2.4-2.8,2.4c-27,0-54.1,0-81.1,0
		c-24.2,0-48.3,0.1-72.5,0.1c-26.4,0-52.8-0.1-79.2-0.1c-19.8,0-39.5,0.1-59.3,0.1c-26.8,0-53.6-0.1-80.4-0.1c-2.5,0-2.5,0-2-2.5
		c2.7-14.9,5.4-29.9,8.1-44.8c0.2-0.9,0.3-1.7,0.5-2.7C1190.5,4.7,1316.1,4.7,1442,4.7z"/>
	<path d="M174.4,185.5c-0.9,5-1.7,9.6-2.5,14.3c-2,11.2-4,22.3-6.1,33.5c-0.4,2.5-0.5,2.5-3,2.5c-46.2,0-92.5,0-138.7,0
		c-5.8,0-11.5,0-17.3,0c-0.8,0-1.6,0.2-2.4-0.2c-0.3-1.2,0.2-2.4,0.4-3.5c2.8-16,5.6-31.9,8.4-47.9c3.3-18.6,6.6-37.3,9.8-55.9
		c1.5-8.3,2.9-16.7,4.4-25c0.1-0.4,0.2-0.8,0.3-1.2c0.1-0.8,0.4-1.2,1.2-1.1c0.6,0,1.1,0,1.7,0c45.9,0,91.8,0,137.8,0
		c0.9,0,1.8-0.2,2.8,0.3c-0.6,3.6-1.2,7.2-1.9,10.8c-2,11.2-4,22.5-6.1,33.7c-0.1,0.6-0.2,1.1-0.3,1.6c-0.1,0.6-0.4,0.8-1,0.8
		c-0.6,0-1.3,0-1.9,0c-26.7,0-53.4,0-80.2,0c-2.5,0-2.5,0-2.9,2.5c-1.9,11.3-3.9,22.7-5.8,34c0,0.2,0,0.5,0,0.9
		C105.5,185.5,139.8,185.5,174.4,185.5z"/>
	<path d="M972.5,192.4c-0.3,2.6-0.9,5-0.5,7.5c0.6,3.8,2.5,6.5,5.8,8.3c2.2,1.1,4.5,1.7,6.9,2c5,0.6,9.9,0.6,14.8-0.7
		c1.1-0.3,2.1-0.7,3.1-1.1c6.9-3.1,7.3-11.2,3.6-15.8c-1.3-1.6-2.9-2.8-4.6-3.8c-4.7-2.8-9.8-4.7-15-6.2c-5.8-1.7-11.6-3.6-17.2-5.8
		c-4.8-1.8-9.1-4.5-12.9-8.1c-5.1-4.7-8.1-10.5-8.6-17.4c-0.6-8.5,0.4-16.8,4-24.6c4.1-9,11.1-15.1,20-19.1c6.3-2.8,13-4.4,19.9-5.2
		c8.1-1,16.3-1.3,24.4-0.5c6.6,0.6,13.1,1.9,19.2,4.9c7.9,3.9,13.5,9.9,15.4,18.8c1.7,7.8,0.6,15.2-2.5,22.5
		c-0.1,0.3-0.3,0.6-0.4,0.8c-1.7,3-1.7,3-5.2,3c-8.9,0-17.8,0-26.6,0c-0.8,0-1.6,0-2.4,0c-0.1-0.9,0.5-1.2,0.9-1.7
		c2.6-3.8,3.2-8,2.2-12.4c-1-4.6-4.4-7-8.7-7.9c-6-1.3-12.1-1-18,0.9c-3.6,1.1-6.4,3.3-7.6,7c-1.7,5.3,0.1,10.2,4.9,13.3
		c3.5,2.3,7.3,3.8,11.3,5c5.7,1.7,11.6,2.9,17.3,4.8c2.6,0.9,5.3,1.7,7.9,2.8c5.1,2.2,9.4,5.4,12.9,9.7c3.9,4.6,5.6,10,6,15.9
		c0.4,6.9-0.3,13.7-2.4,20.4c-3.8,11.8-11.8,19.5-23.3,23.8c-6.5,2.4-13.2,3.7-20.1,4.3c-7.7,0.7-15.5,0.7-23.2,0
		c-6.2-0.6-12.4-1.6-18.2-3.9c-6.5-2.5-11.7-6.5-14.8-12.9c-0.1-0.2-0.1-0.5-0.6-0.5c-0.8,2.4-0.9,4.9-1.5,7.4
		c-0.4,2-0.7,4.1-1.1,6.1c-0.3,1.7-0.3,1.7-2.2,1.7c-6.8,0-13.6,0-20.4,0c-19.7,0-39.4,0-59,0c-0.9,0-1.8,0.2-2.8-0.2
		c0.6-3.2,1.1-6.4,1.7-9.6c2.5-14.1,5-28.2,7.4-42.2c2.7-15,5.3-30,8-45.1c2-11.2,4-22.5,5.9-33.7c0.3-1.9,0.3-1.9,2-1.9
		c10.2,0,20.3,0,30.5,0c0.3,0,0.6,0.1,1.1,0.1c-0.7,4.1-1.4,8-2.1,12c-2.3,13.2-4.6,26.4-7,39.6c-2.3,13.3-4.7,26.6-7,39.9
		c-0.6,3.7-1.3,7.4-2,11.1c-0.2,1,0.1,1.3,1.1,1.3c0.4,0,0.8,0,1.2,0c13.8,0,27.5,0,41.3,0c0.3,0,0.6,0,1,0c1.1,0.2,1.5-0.3,1.5-1.5
		c0.1-3.9,0.7-7.8,1.3-11.7c0.2-1.2,0.7-1.6,1.9-1.6c10.2,0,20.5,0,30.7,0C971.8,192.3,972.1,192.3,972.5,192.4z"/>
	<path d="M1407,101.2c-0.7,4.1-1.4,8.3-2.1,12.4c-2,11.5-4,23-6,34.5c0,0.1,0,0.2,0,0.2c-0.4,2.7-0.4,2.7-3,2.7
		c-26.7,0-53.4,0-80.1,0c-2.7,0-2.7,0-3.2,2.7c-3.2,18.2-6.3,36.3-9.5,54.5c-1.5,8.6-3,17.2-4.5,25.7c-0.3,1.7-0.3,1.8-2.1,1.8
		c-18.3,0-36.6,0-54.9,0c-0.4,0-0.8,0.1-1.3-0.4c0.6-3.6,1.3-7.4,1.9-11.1c2.3-13.2,4.7-26.4,7-39.6c2.5-14,4.9-28,7.4-42
		c2.3-13.1,4.6-26.3,7-39.4c0.4-2.3,0.4-2.3,2.9-2.3c40.2,0,80.4,0,120.7,0c5.8,0,11.7,0,17.5,0
		C1405.3,100.8,1406.1,100.6,1407,101.2z"/>
	<path d="M277.6,206.2c-3.2,14-11.9,23-25.2,27.7c-6.1,2.2-12.5,3.3-19,3.9c-7.7,0.7-15.5,0.7-23.2,0c-6.9-0.6-13.8-1.8-20.2-4.7
		c-9.5-4.2-14.4-11.8-15.5-21.9c-0.6-5.8,0-11.5,1.1-17.2c0.2-1.1,0.6-1.8,1.9-1.7c10.2,0.1,20.3,0,30.5,0c0.3,0,0.6,0.1,0.9,0.1
		c0.3,0.9,0,1.6-0.2,2.4c-0.3,1.6-0.4,3.2-0.2,4.8c0.4,3.8,2.2,6.6,5.6,8.4c2.2,1.2,4.6,1.9,7.1,2.1c5,0.6,10.1,0.6,15-0.7
		c1.1-0.3,2.1-0.7,3.1-1.1c6.1-3,7.7-10.5,3.4-15.8c-1.2-1.5-2.8-2.6-4.4-3.6c-4.7-2.8-9.8-4.7-15-6.2c-5.9-1.7-11.7-3.7-17.5-5.9
		c-4.8-1.8-9.1-4.6-12.9-8.1c-5-4.8-8-10.5-8.5-17.5c-0.6-8.2,0.4-16.1,3.6-23.7c4.4-10.2,12.3-16.7,22.5-20.7
		c7.1-2.8,14.6-4.1,22.2-4.8c6.7-0.6,13.4-0.7,20.1-0.1c6.5,0.6,12.8,1.8,18.7,4.7c10.6,5.2,16.2,13.6,16.4,25.5
		c0.1,4.9-0.8,9.7-2.6,14.3c-0.2,0.5-0.4,1-0.7,1.5c-1.9,3.9-1.9,3.9-6.3,3.9c-9.4,0-18.9,0-28.3,0c-0.3-0.8,0.3-1,0.6-1.5
		c2.7-3.9,3.5-8.2,2.4-12.8c-0.7-2.9-2.4-5-5-6.4c-1.8-0.9-3.7-1.5-5.7-1.7c-5.3-0.6-10.5-0.4-15.7,1.2c-3.9,1.2-7,3.5-8.1,7.7
		c-1.3,5.1,0.3,9.5,4.8,12.5c2.7,1.9,5.7,3.1,8.8,4.3c5,1.9,10.2,2.7,15.2,4.3c3.5,1.1,7,2.2,10.5,3.3c4.8,1.6,8.9,4.3,12.6,7.7
		c5.5,5.1,8.2,11.5,8.6,18.9c0.1,1.7,0,3.4,0.1,5c0.3,0.4,0.4,0.9,0.3,1.4c-0.1,0.6-0.2,1.2-0.2,1.8c0.2,1.7-0.4,3.3-0.5,5
		C278.6,204,278.5,205.2,277.6,206.2z"/>
	<path d="M279.5,194.6c0.1-0.5,0.3-0.9,0.4-1.4c0.1-0.9,0.6-1,1.3-0.9c0.2,0,0.3,0,0.5,0c10.1,0,20.2,0,30.2,0
		c0.4,0,0.8-0.1,1.2,0.3c0.1,0.8-0.1,1.5-0.2,2.3c-0.4,1.7-0.4,3.3-0.2,5c0.5,3.7,2.3,6.4,5.6,8.2c2.2,1.2,4.6,1.8,7.1,2.1
		c5,0.6,9.9,0.6,14.8-0.6c1.2-0.3,2.3-0.7,3.4-1.2c6.9-3.2,6.9-11.3,3.6-15.5c-1.3-1.6-2.8-2.8-4.5-3.9c-4.8-2.9-9.9-4.8-15.2-6.3
		c-5.9-1.7-11.7-3.7-17.5-5.9c-4.5-1.7-8.6-4.3-12.2-7.5c-6.1-5.4-9.2-12.2-9.4-20.3c-0.1-5.6,0.4-11.2,2-16.6
		c3.3-11.4,10.5-19.3,21.2-24.3c6.7-3.1,13.7-4.8,21-5.6c8.1-1,16.3-1.3,24.4-0.5c6.6,0.6,13,1.9,18.9,4.8
		c8.6,4.3,14.4,10.9,15.8,20.6c1.1,8.2,0.1,16.1-4.4,23.3c-0.6,0.9-1.2,1.3-2.3,1.3c-10.2,0-20.5,0-30.7,0c-0.4-0.8,0.3-1,0.6-1.4
		c2.5-3.7,3.4-7.7,2.6-12.1c-0.7-3.6-2.7-6-6-7.5c-1.6-0.7-3.3-1.1-5.1-1.3c-5.3-0.6-10.6-0.4-15.6,1.3c-4.1,1.4-7.1,3.8-8,8.4
		c-0.9,4.6,0.5,8.4,4.1,11.2c2.9,2.2,6.2,3.6,9.6,4.9c4.9,1.9,10.2,2.7,15.2,4.3c3.5,1.1,7,2.2,10.5,3.3c5.1,1.7,9.4,4.6,13.3,8.3
		c4.7,4.6,7.3,10.1,7.8,16.5c0.6,7.2,0.1,14.4-2,21.4c-3.5,11.6-11.1,19.4-22.2,23.9c-6.9,2.8-14.1,4.1-21.4,4.8
		c-7.6,0.7-15.2,0.7-22.8,0c-6.1-0.5-12.2-1.5-18-3.7c-11.7-4.4-17.8-13-18.2-25.5c-0.3-1.7-0.4-3.3-0.2-5c0.4-2,0.4-4,0.7-6
		c0-0.4,0-0.8,0.1-1.2C279.4,195.9,279,195.2,279.5,194.6z"/>
	<path d="M850.8,223.9c-0.1-25.3-0.1-50.5-0.4-75.8c-0.1-13.3-0.1-26.6-0.2-39.8c0-1.4,0-2.9,0-4.3c0-0.7-0.2-1.1-0.9-1
		c-0.6,0-1.1,0-1.7,0c-18.6,0-37.3,0-55.9,0c-2.9,0-2.3-0.2-3.2,2.2c-15.3,42.7-30.5,85.4-45.7,128.1c-0.3,0.7-0.8,1.4-0.5,2.4
		c0.6,0,1.2,0.1,1.8,0.1c10.3,0,20.6,0,31,0c2.2,0,2,0.4,2.7-2c2.6-8.3,5.2-16.6,7.8-24.9c0.6-2,0.6-2,2.8-2c8.9,0,17.8,0,26.6,0
		c2,0,1.9,0,1.9,2c-0.3,8.5-0.6,16.9-1,25.4c0,1.1,0.1,1.6,1.4,1.6c10.7,0,21.4,0,32.2,0c1.2,0,1.5-0.4,1.5-1.5
		C850.8,230.8,850.8,227.3,850.8,223.9z M819.8,136.8c-0.3,7.3-0.6,14.7-0.9,22c-0.3,6.8-0.6,13.6-0.9,20.4c0,0.5-0.1,1-0.1,1.4
		c0,1-0.3,1.5-1.4,1.4c-1.4-0.1-2.7,0-4.1,0c-6.1,0-12.1,0-18.3,0c-0.3-0.7-0.1-1.2,0-1.6c4.5-14.5,9-28.9,13.5-43.4
		c0.6-1.8,0.6-1.8,2.4-1.8c2.7,0,5.4,0,8.2,0C819.9,135.2,819.9,135.2,819.8,136.8z"/>
	<path d="M479.2,206.9c-1.7,9.4-3.3,18.4-4.9,27.5c-0.2,1-0.6,1.4-1.6,1.3c-0.5,0-1,0-1.4,0c-29,0-57.9,0-86.9,0
		c-3.1,0-3.1,0.6-2.5-3c2.7-15.2,5.3-30.4,8-45.6c2.8-15.9,5.6-31.8,8.5-47.7c2-11.3,4-22.7,5.9-34c0.5-2.7,0.4-2.7,3-2.7
		c29.1,0,58.2,0,87.4,0c0.9,0,1.8-0.2,2.7,0.3c-1,5.7-2,11.5-3.1,17.2c-0.6,3.2-1.2,6.4-1.7,9.7c-0.2,1.3-0.6,1.8-2,1.7
		c-2.8-0.1-5.6,0-8.4,0c-15.5,0-31,0-46.6,0c-0.5,0-1,0-1.4,0c-1.2-0.1-1.5,0.5-1.6,1.5c-0.6,3.6-1.2,7.2-1.8,10.9
		c-0.6,3.7-1.3,7.4-1.9,11.1c-0.1,0.4-0.2,0.8,0.2,1.4c16.1,0,32.3,0,48.6,0c-0.9,5-1.7,9.7-2.5,14.4c-0.7,4-1.5,8-2.2,12
		c-0.4,2.4-0.4,2.4-2.8,2.4c-14.6,0-29.1,0-43.7,0c-0.6,0-1.1,0-1.7,0c-1-0.1-1.4,0.3-1.6,1.3c-0.4,2.8-0.9,5.5-1.4,8.3
		c-0.6,3.2-1.2,6.4-1.7,9.7c-0.1,0.7-0.3,1.4,0,2.3C439.7,206.9,459.3,206.9,479.2,206.9z"/>
	<path d="M206.2,4.5c-0.6,3.1-1.1,6-1.6,8.9c-2.3,12.9-4.6,25.8-6.9,38.7c-0.5,2.5-0.5,2.5-2.9,2.5c-8.2,0-16.3,0-24.5,0
		c-24.3,0-48.6,0-73,0c-19.4,0-38.9,0.1-58.3,0.1c-0.9,0-1.8,0.2-2.7-0.3c0.6-3.7,1.2-7.3,1.9-11c2.2-12.4,4.4-24.8,6.6-37.3
		c0.2-1.3,0.7-1.8,2-1.6c0.3,0,0.6,0,1,0c51.9,0,103.8,0,155.7,0C204.3,4.5,205.1,4.5,206.2,4.5z"/>
	<path d="M1185.1,101.1c-3.1,17.8-6.3,35.4-9.3,53c-2.8,16-5.6,32-8.4,47.9c-1.8,10.5-3.7,21.1-5.6,31.6c-0.4,2-0.4,2-2.6,2
		c-6.6,0-13.3,0-19.9,0c-11,0-21.9,0-32.9,0c-0.5,0-1,0-1.4,0c-1.6-0.1-1.6-0.1-1.4-1.7c1-6,2.1-12,3.1-17.9
		c2.3-13.2,4.6-26.4,7-39.7c2.3-13.1,4.6-26.3,6.9-39.4c2-11.4,4-22.8,6-34.2c0.3-2,0.3-2,2.4-2c18,0,36,0,54,0
		C1183.7,100.8,1184.4,100.7,1185.1,101.1z"/>
	<path class="st0" d="M278.6,203.2c-0.1,1.8,0.2,3.6-0.1,5.3c-0.6-0.7,0.2-1.9-0.9-2.4c-0.2-1.2,0.6-2.2,0.5-3.3
		C278.5,202.6,278.7,202.8,278.6,203.2z"/>
	<path class="st1" d="M560.7,169.1c0.1,0.3,0,0.9-0.1,0.8c-0.6-0.2-0.8-0.7-0.7-1.3C560.1,168.8,560.4,169,560.7,169.1z"/>
	<path class="st2" d="M279.5,194.6c0.3,0.6,0,1.2,0,1.9c-0.4,0.2-0.6,0-0.5-0.4c0.1-0.5,0.1-1,0.2-1.5
		C279.2,194.5,279.3,194.5,279.5,194.6z"/>
	<path class="st3" d="M278.6,203.2c-0.2-0.1-0.4-0.3-0.5-0.4c-0.1-1.8,0.8-3.5,0.5-5.3c0.3-0.3,0.6-0.3,0.9,0
		c-0.4,1.3-0.5,2.6-0.5,4C279,202.1,279.1,202.7,278.6,203.2z"/>
	<path class="st4" d="M279.5,197.5c-0.3,0-0.6,0-0.9,0c0-0.5-0.1-1,0.4-1.4c0.2,0.1,0.3,0.3,0.5,0.4
		C279.4,196.8,279.5,197.1,279.5,197.5z"/>
</g>
</svg>
