<svg xmlns="http://www.w3.org/2000/svg" viewBox="0 0 1435.03 210.46"><g id="Layer_2" data-name="Layer 2"><g id="Livello_1" data-name="Livello 1"><path d="M14.93,65.29Q0,70.72,0,79.67V210.31H70V148.72h98V122.59H70V92.73q0-5.6,11.18-5.6H168V61H42A82.2,82.2,0,0,0,14.93,65.29Z"/><path d="M367,66.61A67.6,67.6,0,0,0,339.72,61a62,62,0,0,0-27,5.8q-12.24,5.79-17.08,14.92L228.3,210.31h39.19l9.78-18.66H367l9.69,18.66h75.58L384.51,81Q379.83,72.2,367,66.61Zm-75.79,98.91,31-59.17,31,59.17Z"/><path d="M539.44,82.94q-32.84,21.91-32.85,52.71t32.85,52.72q32.85,22,79,21.94h84V184.19h-84q-21.87,0-29.5-18.47-4.12-10.08-4.1-30.07t4.1-30q7.65-18.47,29.5-18.48h84V61h-84Q572.26,61,539.44,82.94Z"/><path d="M806.22,65.29c-10,3.62-14.93,8.4-14.93,14.38v112c0,6,5,10.78,14.93,14.37a81.43,81.43,0,0,0,27,4.29h126V184.19h-86.8q-11.22,0-11.21-5.62V148.72h98V122.59h-98V92.73q0-5.6,11.21-5.6h86.8V61h-126A82.2,82.2,0,0,0,806.22,65.29Z"/><path d="M1078.49,209.45l.06-.3h75.28v-51l-75.47-30.44ZM1218.68,61.14V87.28h61.86c7.32,0,11,1.86,11,5.6V210.46h70.64V92.88q0-5.61,11-5.6H1435V61.14Z"/><path d="M1155.15,1.21a1.09,1.09,0,0,0-2-.66c-19.18,29.45-30,46.27-39.71,61.53-36.25,0-88.42,0-114.37,0-1.42,0-2,1.85-.75,2.31,47.45,17.9,116,44.87,154.29,60,1,.41,2.56-.53,2.56-1.21Z"/></g></g></svg>