<?xml version="1.0" encoding="UTF-8"?>
<svg id="Layer_2" xmlns="http://www.w3.org/2000/svg" viewBox="0 0 981.37 211.54">
    <defs><style>.cls-1{fill:none;stroke:#000;stroke-linejoin:round;stroke-width:14px;}.cls-2,.cls-3,.cls-4,.cls-5{stroke-width:0px;}.cls-3{fill:#fff;}.cls-4{fill:#713e96;}.cls-5{fill:#6a4692;}</style></defs>
    <g id="Layer_1-2">
        <path class="cls-2" d="m253.92,148.06c-6.53,0-12.14-1.08-16.83-3.24-4.69-2.16-8.36-5.5-11-10.01-2.64-4.51-4.07-10.14-4.29-16.88-.07-3.15-.11-6.27-.11-9.35s.04-6.23.11-9.46c.22-6.67,1.69-12.25,4.4-16.72,2.71-4.47,6.43-7.85,11.17-10.12,4.73-2.27,10.25-3.41,16.55-3.41s11.84,1.14,16.61,3.41c4.77,2.27,8.51,5.65,11.22,10.12,2.71,4.47,4.18,10.05,4.4,16.72.15,3.23.22,6.38.22,9.46s-.07,6.2-.22,9.35c-.22,6.75-1.65,12.38-4.29,16.88-2.64,4.51-6.32,7.85-11.05,10.01-4.73,2.16-10.36,3.24-16.88,3.24Zm0-12.65c4.77,0,8.65-1.41,11.66-4.24,3.01-2.82,4.62-7.42,4.84-13.8.15-3.23.22-6.21.22-8.96s-.07-5.7-.22-8.86c-.15-4.25-.94-7.72-2.37-10.39-1.43-2.68-3.35-4.62-5.78-5.83-2.42-1.21-5.21-1.82-8.36-1.82s-5.83.61-8.25,1.82-4.34,3.15-5.78,5.83c-1.43,2.68-2.22,6.14-2.37,10.39-.07,3.15-.11,6.11-.11,8.86s.04,5.74.11,8.96c.22,6.38,1.83,10.98,4.84,13.8,3.01,2.82,6.86,4.24,11.55,4.24Z"/>
        <path class="cls-2" d="m298.36,146.96c-.73,0-1.36-.26-1.87-.77-.51-.51-.77-1.14-.77-1.87v-51.81c0-.81.26-1.47.77-1.98s1.14-.77,1.87-.77h8.91c.73,0,1.38.26,1.92.77.55.51.83,1.17.83,1.98v4.51c1.69-2.35,3.87-4.14,6.54-5.39,2.68-1.25,5.78-1.87,9.29-1.87h4.51c.81,0,1.45.26,1.92.77.48.51.71,1.14.71,1.87v7.92c0,.73-.24,1.36-.71,1.87-.48.51-1.12.77-1.92.77h-8.58c-3.52,0-6.25.97-8.2,2.92s-2.92,4.67-2.92,8.2v30.25c0,.73-.26,1.36-.77,1.87-.51.51-1.17.77-1.98.77h-9.57Z"/>
        <path class="cls-2" d="m371.07,146.96c-4.4,0-8.1-.77-11.11-2.31-3.01-1.54-5.24-3.83-6.71-6.88-1.47-3.04-2.2-6.84-2.2-11.39v-24.97h-8.69c-.73,0-1.36-.26-1.87-.77-.51-.51-.77-1.17-.77-1.98v-6.27c0-.73.26-1.36.77-1.87.51-.51,1.14-.77,1.87-.77h8.69v-18.26c0-.73.24-1.36.72-1.87.48-.51,1.12-.77,1.92-.77h8.91c.73,0,1.36.26,1.87.77.51.51.77,1.14.77,1.87v18.26h13.75c.73,0,1.36.26,1.87.77.51.51.77,1.14.77,1.87v6.27c0,.81-.26,1.47-.77,1.98-.51.51-1.14.77-1.87.77h-13.75v23.87c0,3.01.53,5.35,1.59,7.04,1.06,1.69,2.92,2.53,5.56,2.53h7.59c.73,0,1.36.26,1.87.77.51.51.77,1.14.77,1.87v6.82c0,.73-.26,1.36-.77,1.87-.51.51-1.14.77-1.87.77h-8.91Z"/>
        <path class="cls-2" d="m393.17,146.96c-.73,0-1.36-.26-1.87-.77-.51-.51-.77-1.14-.77-1.87v-72.82c0-.73.26-1.36.77-1.87.51-.51,1.14-.77,1.87-.77h9.79c.81,0,1.45.26,1.92.77.48.51.71,1.14.71,1.87v25.08c1.98-2.35,4.4-4.25,7.26-5.72,2.86-1.47,6.38-2.2,10.56-2.2,4.47,0,8.38,1.01,11.71,3.02,3.34,2.02,5.92,4.86,7.75,8.53,1.83,3.67,2.75,8.07,2.75,13.2v30.91c0,.73-.26,1.36-.77,1.87-.51.51-1.14.77-1.87.77h-9.9c-.73,0-1.36-.26-1.87-.77-.51-.51-.77-1.14-.77-1.87v-30.25c0-4.25-1.04-7.59-3.13-10.01s-5.12-3.63-9.08-3.63-6.88,1.21-9.19,3.63c-2.31,2.42-3.46,5.76-3.46,10.01v30.25c0,.73-.24,1.36-.71,1.87-.48.51-1.12.77-1.92.77h-9.79Z"/>
        <path class="cls-2" d="m482.93,148.06c-5.87,0-10.8-1.03-14.79-3.08-4-2.05-7.04-4.95-9.13-8.69s-3.28-8.1-3.58-13.09c-.07-1.32-.11-2.93-.11-4.84s.04-3.52.11-4.84c.29-5.06,1.52-9.44,3.69-13.14,2.16-3.7,5.24-6.58,9.24-8.63,4-2.05,8.86-3.08,14.58-3.08s10.58,1.03,14.58,3.08c4,2.05,7.08,4.93,9.24,8.63,2.16,3.7,3.39,8.08,3.68,13.14.07,1.32.11,2.93.11,4.84s-.04,3.52-.11,4.84c-.29,4.99-1.48,9.35-3.58,13.09-2.09,3.74-5.13,6.64-9.13,8.69-4,2.05-8.93,3.08-14.79,3.08Zm0-10.89c3.89,0,6.89-1.23,9.02-3.68,2.13-2.46,3.3-6.07,3.52-10.83.07-1.1.11-2.53.11-4.29s-.04-3.19-.11-4.29c-.22-4.77-1.39-8.38-3.52-10.83-2.13-2.46-5.13-3.69-9.02-3.69s-6.89,1.23-9.02,3.69c-2.13,2.46-3.3,6.07-3.52,10.83-.07,1.1-.11,2.53-.11,4.29s.04,3.19.11,4.29c.22,4.77,1.39,8.38,3.52,10.83,2.13,2.46,5.13,3.68,9.02,3.68Z"/>
        <path class="cls-2" d="m544.86,171.16c-5.35,0-9.75-.7-13.2-2.09-3.45-1.39-6.16-3.08-8.14-5.06-1.98-1.98-3.39-3.94-4.24-5.88-.84-1.94-1.3-3.46-1.38-4.57-.07-.73.17-1.38.71-1.92s1.19-.83,1.92-.83h9.57c.73,0,1.32.17,1.76.5.44.33.81.94,1.1,1.82.44.95,1.03,1.98,1.76,3.08.73,1.1,1.85,2.04,3.36,2.8,1.5.77,3.57,1.16,6.21,1.16,2.79,0,5.13-.4,7.04-1.21,1.91-.81,3.35-2.16,4.34-4.07.99-1.91,1.49-4.55,1.49-7.92v-7.48c-1.76,2.13-4.02,3.85-6.77,5.17-2.75,1.32-6.14,1.98-10.17,1.98s-7.28-.64-10.17-1.92c-2.9-1.28-5.3-3.08-7.21-5.39-1.91-2.31-3.36-5.04-4.34-8.2-.99-3.15-1.56-6.64-1.71-10.45-.07-1.98-.07-3.96,0-5.94.15-3.67.71-7.08,1.71-10.23.99-3.15,2.44-5.92,4.34-8.3,1.91-2.38,4.31-4.24,7.21-5.56,2.9-1.32,6.29-1.98,10.17-1.98,4.18,0,7.7.79,10.56,2.37,2.86,1.58,5.21,3.54,7.04,5.88v-4.4c0-.81.26-1.47.77-1.98.51-.51,1.14-.77,1.87-.77h8.91c.73,0,1.36.26,1.87.77.51.51.77,1.17.77,1.98l.11,53.02c0,5.28-.99,9.83-2.97,13.64-1.98,3.81-4.97,6.76-8.96,8.86-4,2.09-9.11,3.13-15.34,3.13Zm-.55-36.19c3.01,0,5.43-.66,7.26-1.98,1.83-1.32,3.19-3.04,4.07-5.17.88-2.13,1.39-4.29,1.54-6.49.07-.95.11-2.16.11-3.63s-.04-2.64-.11-3.52c-.15-2.27-.66-4.46-1.54-6.54-.88-2.09-2.24-3.81-4.07-5.17-1.83-1.36-4.25-2.04-7.26-2.04s-5.43.68-7.26,2.04c-1.83,1.36-3.13,3.13-3.9,5.33-.77,2.2-1.23,4.62-1.38,7.26-.15,1.76-.15,3.56,0,5.39.15,2.57.6,4.97,1.38,7.21.77,2.24,2.07,4.01,3.9,5.33,1.83,1.32,4.25,1.98,7.26,1.98Z"/>
        <path class="cls-2" d="m585.67,146.96c-.73,0-1.36-.26-1.87-.77-.51-.51-.77-1.14-.77-1.87v-51.81c0-.81.26-1.47.77-1.98s1.14-.77,1.87-.77h8.91c.73,0,1.38.26,1.92.77.55.51.83,1.17.83,1.98v4.51c1.69-2.35,3.87-4.14,6.54-5.39,2.68-1.25,5.78-1.87,9.29-1.87h4.51c.81,0,1.45.26,1.92.77.48.51.71,1.14.71,1.87v7.92c0,.73-.24,1.36-.71,1.87-.48.51-1.12.77-1.92.77h-8.58c-3.52,0-6.25.97-8.2,2.92s-2.92,4.67-2.92,8.2v30.25c0,.73-.26,1.36-.77,1.87-.51.51-1.17.77-1.98.77h-9.57Z"/>
        <path class="cls-2" d="m640.89,148.06c-3.81,0-7.26-.75-10.34-2.25-3.08-1.5-5.52-3.52-7.32-6.05-1.8-2.53-2.69-5.37-2.69-8.53,0-5.13,2.09-9.22,6.27-12.26,4.18-3.04,9.64-5.08,16.39-6.1l15.07-2.2v-2.31c0-3.08-.77-5.46-2.31-7.15-1.54-1.69-4.18-2.53-7.92-2.53-2.64,0-4.79.53-6.44,1.59-1.65,1.06-2.88,2.48-3.68,4.24-.59.95-1.43,1.43-2.53,1.43h-8.69c-.81,0-1.41-.22-1.82-.66-.4-.44-.61-1.03-.61-1.76.07-1.17.57-2.6,1.49-4.29.92-1.69,2.31-3.32,4.18-4.89,1.87-1.58,4.31-2.92,7.32-4.02,3.01-1.1,6.64-1.65,10.89-1.65,4.62,0,8.53.57,11.72,1.71,3.19,1.14,5.74,2.66,7.64,4.56,1.91,1.91,3.3,4.14,4.18,6.71.88,2.57,1.32,5.28,1.32,8.14v34.54c0,.73-.26,1.36-.77,1.87-.51.51-1.14.77-1.87.77h-8.91c-.81,0-1.45-.26-1.92-.77-.48-.51-.72-1.14-.72-1.87v-4.29c-.95,1.32-2.24,2.6-3.85,3.85-1.61,1.25-3.58,2.25-5.88,3.03-2.31.77-5.04,1.15-8.2,1.15Zm3.74-10.45c2.57,0,4.89-.55,6.99-1.65,2.09-1.1,3.74-2.8,4.95-5.12,1.21-2.31,1.82-5.22,1.82-8.75v-2.31l-11,1.76c-4.33.66-7.55,1.72-9.68,3.19-2.13,1.47-3.19,3.26-3.19,5.39,0,1.61.5,2.99,1.49,4.12.99,1.14,2.25,1.98,3.79,2.53s3.15.83,4.84.83Z"/>
        <path class="cls-2" d="m686.1,167.86c-.73,0-1.36-.26-1.87-.77-.51-.51-.77-1.14-.77-1.87v-72.82c0-.73.26-1.36.77-1.87.51-.51,1.14-.77,1.87-.77h8.69c.81,0,1.45.26,1.92.77.48.51.71,1.14.71,1.87v4.4c1.76-2.35,4.07-4.29,6.93-5.83,2.86-1.54,6.42-2.31,10.67-2.31,3.89,0,7.26.62,10.12,1.87,2.86,1.25,5.24,3.02,7.15,5.33,1.91,2.31,3.37,5.04,4.4,8.19,1.03,3.15,1.61,6.64,1.76,10.45.07,1.25.11,2.53.11,3.85s-.04,2.64-.11,3.96c-.07,3.67-.62,7.06-1.65,10.17-1.03,3.12-2.51,5.83-4.46,8.14-1.94,2.31-4.35,4.12-7.21,5.45-2.86,1.32-6.23,1.98-10.12,1.98s-7.33-.71-10.12-2.14c-2.79-1.43-5.06-3.32-6.82-5.67v24.97c0,.73-.24,1.36-.71,1.87-.48.51-1.12.77-1.92.77h-9.35Zm24.86-31.57c3.15,0,5.61-.68,7.37-2.04,1.76-1.36,3.04-3.13,3.85-5.33.81-2.2,1.28-4.62,1.43-7.26.07-2.2.07-4.4,0-6.6-.15-2.64-.62-5.06-1.43-7.26-.81-2.2-2.09-3.98-3.85-5.33-1.76-1.36-4.22-2.04-7.37-2.04s-5.45.7-7.31,2.09c-1.87,1.39-3.23,3.17-4.07,5.33-.84,2.16-1.34,4.38-1.49,6.66-.07,1.32-.11,2.71-.11,4.18s.04,2.9.11,4.29c.07,2.2.59,4.31,1.54,6.33.95,2.02,2.35,3.69,4.18,5,1.83,1.32,4.22,1.98,7.15,1.98Z"/>
        <path class="cls-2" d="m749.9,146.96c-.73,0-1.36-.26-1.87-.77-.51-.51-.77-1.14-.77-1.87v-72.82c0-.73.26-1.36.77-1.87.51-.51,1.14-.77,1.87-.77h9.79c.81,0,1.45.26,1.93.77.48.51.71,1.14.71,1.87v25.08c1.98-2.35,4.4-4.25,7.26-5.72,2.86-1.47,6.38-2.2,10.56-2.2,4.47,0,8.38,1.01,11.71,3.02,3.34,2.02,5.92,4.86,7.76,8.53,1.83,3.67,2.75,8.07,2.75,13.2v30.91c0,.73-.26,1.36-.77,1.87-.51.51-1.14.77-1.87.77h-9.9c-.73,0-1.36-.26-1.87-.77-.51-.51-.77-1.14-.77-1.87v-30.25c0-4.25-1.04-7.59-3.13-10.01s-5.12-3.63-9.08-3.63-6.88,1.21-9.18,3.63-3.46,5.76-3.46,10.01v30.25c0,.73-.24,1.36-.71,1.87-.48.51-1.12.77-1.93.77h-9.79Z"/>
        <path class="cls-2" d="m814.8,80.3c-.73,0-1.36-.26-1.87-.77-.51-.51-.77-1.14-.77-1.87v-7.92c0-.73.26-1.36.77-1.87s1.14-.77,1.87-.77h10.01c.81,0,1.47.26,1.98.77.51.51.77,1.14.77,1.87v7.92c0,.73-.26,1.36-.77,1.87-.51.51-1.17.77-1.98.77h-10.01Zm.44,66.66c-.73,0-1.36-.26-1.87-.77-.51-.51-.77-1.14-.77-1.87v-51.92c0-.73.26-1.36.77-1.87.51-.51,1.14-.77,1.87-.77h9.13c.81,0,1.45.26,1.92.77.48.51.71,1.14.71,1.87v51.92c0,.73-.24,1.36-.71,1.87-.48.51-1.12.77-1.92.77h-9.13Z"/>
        <path class="cls-2" d="m862.65,148.06c-5.28,0-9.92-.99-13.92-2.97-4-1.98-7.11-4.86-9.35-8.63-2.24-3.78-3.46-8.34-3.69-13.7-.07-1.1-.11-2.55-.11-4.34s.04-3.28.11-4.46c.22-5.35,1.45-9.92,3.69-13.7,2.24-3.78,5.35-6.65,9.35-8.63,4-1.98,8.64-2.97,13.92-2.97,4.69,0,8.69.64,11.99,1.92,3.3,1.28,6.01,2.93,8.14,4.95,2.13,2.02,3.72,4.11,4.79,6.27,1.06,2.16,1.63,4.12,1.71,5.89.07.81-.17,1.45-.71,1.92-.55.48-1.19.71-1.92.71h-9.68c-.73,0-1.3-.18-1.7-.55-.4-.37-.79-.92-1.16-1.65-1.1-2.93-2.55-5-4.34-6.21-1.8-1.21-4.09-1.82-6.88-1.82-3.67,0-6.58,1.16-8.75,3.47-2.16,2.31-3.32,5.96-3.47,10.94-.15,2.79-.15,5.35,0,7.7.15,5.06,1.3,8.73,3.47,11,2.16,2.27,5.08,3.41,8.75,3.41,2.86,0,5.17-.61,6.93-1.82s3.19-3.28,4.29-6.21c.37-.73.75-1.28,1.16-1.65.4-.37.97-.55,1.7-.55h9.68c.73,0,1.38.24,1.92.71.55.48.79,1.12.71,1.93-.07,1.32-.42,2.8-1.04,4.46-.62,1.65-1.61,3.34-2.97,5.06-1.36,1.72-3.06,3.3-5.12,4.73-2.05,1.43-4.53,2.58-7.42,3.46-2.9.88-6.25,1.32-10.07,1.32Z"/><path class="cls-2" d="m918.64,148.06c-4.4,0-8.16-.51-11.27-1.54-3.12-1.03-5.67-2.31-7.65-3.85-1.98-1.54-3.45-3.08-4.4-4.62-.95-1.54-1.47-2.82-1.54-3.85-.07-.81.17-1.45.71-1.92.55-.48,1.16-.72,1.81-.72h8.69c.29,0,.55.04.77.11.22.07.51.29.88.66.95.81,1.96,1.65,3.02,2.53,1.06.88,2.33,1.63,3.79,2.25,1.47.62,3.3.93,5.5.93,2.86,0,5.26-.57,7.21-1.71,1.94-1.14,2.92-2.77,2.92-4.89,0-1.54-.42-2.79-1.26-3.74-.84-.95-2.4-1.82-4.67-2.58-2.27-.77-5.5-1.59-9.68-2.47-4.11-.95-7.52-2.16-10.23-3.63-2.71-1.47-4.73-3.3-6.05-5.5-1.32-2.2-1.98-4.77-1.98-7.7s.86-5.59,2.58-8.2c1.72-2.6,4.29-4.75,7.7-6.43,3.41-1.69,7.64-2.53,12.71-2.53,3.96,0,7.41.5,10.34,1.48,2.93.99,5.37,2.22,7.31,3.69,1.94,1.47,3.43,2.95,4.46,4.46,1.03,1.5,1.58,2.8,1.65,3.91.07.81-.15,1.45-.66,1.92-.51.48-1.1.71-1.76.71h-8.14c-.37,0-.7-.07-.99-.22-.29-.15-.59-.33-.88-.55-.81-.73-1.69-1.52-2.64-2.36-.95-.84-2.11-1.56-3.46-2.15-1.36-.59-3.13-.88-5.33-.88-2.79,0-4.91.61-6.38,1.82-1.47,1.21-2.2,2.73-2.2,4.56,0,1.25.35,2.33,1.04,3.25.7.92,2.11,1.78,4.24,2.58,2.13.81,5.35,1.65,9.68,2.53,4.91.88,8.82,2.18,11.71,3.91,2.9,1.72,4.95,3.7,6.16,5.94,1.21,2.24,1.82,4.71,1.82,7.42,0,3.3-.97,6.27-2.92,8.91-1.94,2.64-4.8,4.71-8.58,6.21-3.78,1.5-8.45,2.25-14.03,2.25Z"/><path class="cls-5" d="m956.37,146.96c-.81,0-1.48-.28-2.03-.83-.55-.55-.83-1.23-.83-2.04v-16.5c0-.81.27-1.5.83-2.09.55-.59,1.23-.88,2.03-.88h16.5c.81,0,1.5.29,2.09.88.59.59.88,1.28.88,2.09v16.5c0,.81-.29,1.49-.88,2.04-.59.55-1.28.83-2.09.83h-16.5Z"/><polyline class="cls-3" points="71.51 12.7 11.56 53.85 11.56 176.95 129.66 199.1 186.28 149.8 186.28 33.41"/><path class="cls-2" d="m78.32,16.34l105.09,19.75v105.63l-105.09-19.75V16.34m-7-8.44v119.88l119.09,22.38V30.28L71.32,7.9h0Z"/><path class="cls-2" d="m75.03,124.63l-51.31,52.79c-2.71,2.78-7.16,2.85-9.94.14-2.78-2.71-2.85-7.16-.14-9.94.31-.32.67-.62,1.02-.87l60.38-42.12h0Z"/><path class="cls-2" d="m190.42,150.16l-52.96,51.47c-2.45,2.38-6.36,2.31-8.73-.15-2.37-2.47-2.3-6.4.15-8.78.24-.24.53-.47.8-.66l54.16-43.11,6.57,1.23h0Z"/><path class="cls-2" d="m190.42,30.28l-49.68,50.91c-2.71,2.78-7.17,2.83-9.95.12-2.78-2.71-2.83-7.17-.12-9.95.32-.33.7-.64,1.06-.89l58.69-40.2h0Z"/><path class="cls-3" d="m69.1,0S4.09,44.86,2.18,46.14s-2.18,4.15-2.18,5.26v129.27c0,3.28,2.82,6.37,6.67,7.09,3.85.72,120.88,22.78,125,23.51,4.11.72,6.99-.02,8.91-1.88,1.92-1.87,57.24-55.63,57.24-55.63V24.19S69.1,0,69.1,0Z"/><path class="cls-2" d="m71.32,7.9v7.46L17.96,59.54c-2.46,2.38-6.36,2.3-8.73-.17-2.36-2.47-2.29-6.41.17-8.78.24-.23.53-.46.8-.65L71.32,7.9h0Z"/><path class="cls-4" d="m13.57,55.45v119.88l119.09,22.38v-119.88L13.57,55.45Zm59.59,118.48c-26-5.72-47.07-31.66-47.07-57.94,0-26.28,21.07-42.95,47.07-37.24,26,5.72,47.07,31.66,47.07,57.94,0,26.28-21.07,42.95-47.07,37.24Z"/><polygon class="cls-1" points="13.57 55.45 13.57 175.33 132.66 197.71 132.66 77.83 13.57 55.45"/><polyline class="cls-3" points="71.51 12.7 11.56 53.85 11.56 176.95 129.66 199.1 186.28 149.8 186.28 33.41"/><path class="cls-2" d="m78.32,16.34l105.09,19.75v105.63l-105.09-19.75V16.34m-7-8.44v119.88l119.09,22.38V30.28L71.32,7.9h0Z"/><path class="cls-2" d="m75.03,124.63l-51.31,52.79c-2.71,2.78-7.16,2.85-9.94.14-2.78-2.71-2.85-7.16-.14-9.94.31-.32.67-.62,1.02-.87l60.38-42.12h0Z"/><path class="cls-2" d="m190.42,150.16l-52.96,51.47c-2.45,2.38-6.36,2.31-8.73-.15-2.37-2.47-2.3-6.4.15-8.78.24-.24.53-.47.8-.66l54.16-43.11,6.57,1.23h0Z"/><path class="cls-2" d="m131.73,70.47l58.69-40.2-49.68,50.91c-2.71,2.78-7.17,2.83-9.95.12-3.17-3.03-2.69-8.4.94-10.84h0Z"/><path class="cls-2" d="m71.32,7.9v7.46L17.96,59.54c-2.46,2.38-6.36,2.3-8.73-.17-2.36-2.47-2.29-6.41.17-8.78.24-.23.53-.46.8-.65L71.32,7.9h0Z"/><path class="cls-5" d="m13.57,55.45v119.88l119.09,22.38v-119.88L13.57,55.45Zm59.59,118.48c-26-5.72-47.07-31.66-47.07-57.94,0-26.28,21.07-42.95,47.07-37.24,26,5.72,47.07,31.66,47.07,57.94,0,26.28-21.07,42.95-47.07,37.24Z"/><polygon class="cls-1" points="13.57 55.45 13.57 175.33 132.66 197.71 132.66 77.83 13.57 55.45"/>
    </g>
</svg>