<svg xmlns="http://www.w3.org/2000/svg" xmlns:xlink="http://www.w3.org/1999/xlink" viewBox="0 0 481.71 70.65"><defs><style>.cls-1{filter:url(#filter);}.cls-2{fill:url(#Sfumatura_senza_nome_15);}.cls-3{fill:url(#Sfumatura_senza_nome_15-2);}.cls-4{fill:url(#Sfumatura_senza_nome_15-3);}.cls-5{fill:url(#Sfumatura_senza_nome_15-4);}.cls-6{fill:url(#Sfumatura_senza_nome_15-5);}.cls-7{fill:url(#linear-gradient);filter:url(#filter-2);}</style><filter id="filter"><feOffset dx="1.98" dy="1.98" input="SourceAlpha"/><feGaussianBlur stdDeviation="1.42" result="blur"/><feFlood/><feComposite operator="in" in2="blur"/><feComposite in="SourceGraphic"/></filter><linearGradient id="Sfumatura_senza_nome_15" x1="28.19" y1="20.48" x2="28.19" y2="70.6" gradientUnits="userSpaceOnUse"><stop offset="0" stop-color="#f5f7f7"/><stop offset="0.5" stop-color="#fff"/><stop offset="0.5" stop-color="#f4f5f5"/><stop offset="0.5" stop-color="#e9eaea"/><stop offset="0.5" stop-color="#e2e4e4"/><stop offset="0.51" stop-color="#e0e2e2"/><stop offset="0.6" stop-color="#e9ebeb"/><stop offset="0.76" stop-color="#f2f4f4"/><stop offset="1" stop-color="#f5f7f7"/></linearGradient><linearGradient id="Sfumatura_senza_nome_15-2" x1="114.23" y1="20.48" x2="114.23" y2="70.6" xlink:href="#Sfumatura_senza_nome_15"/><linearGradient id="Sfumatura_senza_nome_15-3" x1="202.91" y1="20.48" x2="202.91" y2="70.6" xlink:href="#Sfumatura_senza_nome_15"/><linearGradient id="Sfumatura_senza_nome_15-4" x1="293.81" y1="20.48" x2="293.81" y2="70.6" xlink:href="#Sfumatura_senza_nome_15"/><linearGradient id="Sfumatura_senza_nome_15-5" x1="421.85" y1="20.53" x2="421.85" y2="70.65" xlink:href="#Sfumatura_senza_nome_15"/><linearGradient id="linear-gradient" x1="361.32" x2="361.32" y2="41.78" gradientUnits="userSpaceOnUse"><stop offset="0" stop-color="#de5f16"/><stop offset="0.27" stop-color="#df651a"/><stop offset="0.48" stop-color="#e06e21"/><stop offset="0.48" stop-color="#df6a1f"/><stop offset="0.49" stop-color="#dd5f19"/><stop offset="0.49" stop-color="#db5815"/><stop offset="0.51" stop-color="#db5614"/><stop offset="0.77" stop-color="#de6318"/><stop offset="1" stop-color="#df6919"/></linearGradient><filter id="filter-2" x="334.88" y="0" width="52.88" height="41.78" filterUnits="userSpaceOnUse"><feOffset dx="2.83" dy="2.83" input="SourceAlpha"/><feGaussianBlur stdDeviation="1.42" result="blur-2"/><feFlood/><feComposite operator="in" in2="blur-2"/><feComposite in="SourceGraphic"/></filter></defs><g id="Layer_2" data-name="Layer 2"><g id="Livello_1" data-name="Livello 1"><g class="cls-1"><path class="cls-2" d="M5,21.92q-5,1.81-5,4.82V70.6H23.49V49.92H56.38V41.15H23.49v-10c0-1.25,1.25-1.88,3.76-1.88H56.38V20.48H14.09A27.41,27.41,0,0,0,5,21.92Z"/><path class="cls-3" d="M123.18,22.36A22.73,22.73,0,0,0,114,20.48,20.86,20.86,0,0,0,105,22.42a12,12,0,0,0-5.73,5L76.64,70.6H89.79l3.28-6.27h30.12l3.26,6.27h25.37L129.07,27.18C128,25.22,126.06,23.61,123.18,22.36ZM97.74,55.56,108.15,35.7l10.4,19.86Z"/><path class="cls-4" d="M181.08,27.84q-11,7.36-11,17.69t11,17.7q11,7.38,26.5,7.37h28.19V61.83H207.58c-4.89,0-8.18-2.07-9.9-6.2-.92-2.26-1.37-5.62-1.37-10.1s.45-7.82,1.37-10.08c1.72-4.13,5-6.2,9.9-6.2h28.19V20.48H207.58Q192.1,20.48,181.08,27.84Z"/><path class="cls-5" d="M270.63,21.92q-5,1.81-5,4.82V64.33q0,3,5,4.83a27.45,27.45,0,0,0,9.08,1.44H322V61.83H292.87c-2.52,0-3.77-.63-3.77-1.89v-10H322V41.15H289.1v-10c0-1.25,1.25-1.88,3.77-1.88H322V20.48H279.71A27.45,27.45,0,0,0,270.63,21.92Z"/><path class="cls-6" d="M362,70.31l0-.1h25.27V53.08L362,42.87Zm47.06-49.78V29.3h20.76c2.46,0,3.7.62,3.7,1.88V70.65h23.71V31.18c0-1.26,1.23-1.88,3.69-1.88h20.76V20.53Z"/></g><path class="cls-7" d="M387.76.41a.36.36,0,0,0-.67-.23c-6.44,9.89-10.06,15.54-13.33,20.66-12.17,0-29.68,0-38.4,0-.47,0-.67.62-.25.78,15.93,6,38.95,15.06,51.79,20.14.33.13.86-.18.86-.41Z"/></g></g></svg>